<!DOCTYPE svg PUBLIC "-//W3C//DTD SVG 20010904//EN" "http://www.w3.org/TR/2001/REC-SVG-20010904/DTD/svg10.dtd">
<svg version="1.0" xmlns="http://www.w3.org/2000/svg" width="1000px" height="500px" viewBox="0 0 10000 5000" preserveAspectRatio="xMidYMid meet">
<g id="layer101" fill="#303d5e" stroke="none">
 <path d="M6120 2649 c-73 -14 -71 -11 -53 -76 9 -32 18 -60 19 -62 1 -1 33 5 71 14 83 21 161 15 202 -14 26 -19 85 -120 76 -130 -2 -1 -30 10 -62 25 -43 21 -73 29 -113 29 -71 0 -110 -20 -134 -69 -16 -33 -17 -45 -8 -87 40 -173 180 -295 365 -319 49 -6 103 -6 149 0 40 5 80 10 88 10 44 1 42 14 -20 171 -34 85 -77 196 -96 248 -62 170 -100 219 -198 253 -56 19 -205 23 -286 7z m283 -343 c48 -20 84 -64 117 -142 l29 -69 -27 -7 c-52 -15 -128 10 -168 54 -56 60 -70 136 -32 162 28 20 40 20 81 2z"/>
 <path d="M3120 2641 c0 -5 16 -47 36 -93 49 -114 167 -419 193 -500 26 -77 20 -75 183 -87 230 -19 314 22 312 151 -2 128 -121 289 -241 324 -65 19 -110 13 -171 -22 l-42 -25 -11 28 c-6 15 -28 73 -49 128 l-38 100 -86 3 c-50 2 -86 -1 -86 -7z m485 -364 c65 -64 83 -162 35 -187 -21 -11 -83 -13 -117 -4 -16 4 -28 25 -47 76 -30 80 -32 105 -10 136 11 17 25 22 56 22 35 0 47 -6 83 -43z"/>
 <path d="M2708 2443 c-40 -7 -78 -47 -78 -83 0 -51 36 -106 92 -144 39 -27 80 -42 165 -62 125 -29 165 -51 147 -81 -16 -26 -77 -28 -171 -5 l-78 18 25 -52 25 -52 75 -12 c190 -32 320 -5 320 66 0 13 -26 90 -59 171 -32 81 -65 166 -74 188 l-15 40 -87 3 c-68 2 -86 0 -82 -10 36 -86 77 -190 77 -197 0 -9 -104 20 -143 40 -28 15 -37 28 -37 57 0 19 5 22 41 22 l40 0 -16 28 c-33 55 -41 61 -91 65 -27 3 -61 3 -76 0z"/>
 <path d="M3987 2436 c-58 -16 -94 -48 -107 -94 -31 -113 97 -311 235 -362 84 -31 197 -31 253 0 22 12 45 33 51 47 16 34 14 96 -5 143 l-16 40 -164 0 -164 0 -11 26 c-12 34 -4 60 27 81 19 12 41 14 107 10 45 -3 93 -9 105 -13 24 -7 24 -7 -7 53 -20 40 -38 62 -53 67 -54 14 -204 16 -251 2z m279 -311 c9 -34 -1 -54 -32 -65 -35 -14 -103 18 -127 60 l-18 30 85 0 c83 0 86 -1 92 -25z"/>
 <path d="M5576 2440 c-63 -19 -86 -67 -61 -127 36 -85 107 -129 268 -164 98 -22 130 -40 125 -73 -3 -18 -11 -21 -53 -24 -27 -1 -83 6 -122 16 -40 10 -73 17 -73 15 0 -2 11 -26 25 -52 27 -54 24 -53 180 -70 88 -10 174 0 211 24 38 24 30 65 -46 257 -38 97 -70 181 -70 187 0 7 -31 11 -89 11 l-89 0 43 -107 c24 -60 42 -109 41 -110 -6 -7 -152 49 -168 64 -10 9 -18 26 -16 37 2 16 12 22 41 24 20 2 37 5 37 8 0 2 -12 22 -26 43 -32 49 -85 63 -158 41z"/>
 <path d="M7680 2444 c-59 -12 -91 -27 -115 -55 -84 -101 42 -345 213 -409 70 -27 188 -30 243 -6 69 29 90 103 54 193 l-17 43 -166 2 -167 3 -3 42 c-2 33 1 44 20 57 26 19 132 22 191 5 22 -6 41 -9 43 -6 2 2 -10 29 -26 59 -20 37 -39 58 -54 62 -34 8 -187 15 -216 10z m245 -315 c11 -33 -3 -67 -28 -71 -35 -6 -78 9 -109 39 -46 44 -38 53 51 53 72 0 80 -2 86 -21z"/>
 <path d="M8135 2435 c-22 -8 -41 -15 -41 -15 -1 0 -7 -14 -14 -31 -27 -64 28 -152 121 -196 24 -12 89 -31 144 -42 105 -23 138 -42 133 -75 -3 -18 -11 -21 -53 -24 -27 -1 -83 6 -122 16 -40 10 -73 17 -73 15 0 -2 11 -25 25 -52 27 -54 27 -54 174 -71 142 -16 241 15 241 77 0 19 -70 208 -140 381 -9 20 -16 22 -95 22 l-85 0 22 -52 c42 -105 58 -148 58 -157 0 -9 -92 17 -143 40 -27 12 -45 49 -32 68 3 6 22 11 41 11 35 0 35 0 20 28 -8 15 -20 35 -28 44 -19 25 -103 32 -153 13z"/>
 <path d="M8779 2441 c-103 -32 -126 -120 -64 -247 78 -158 195 -234 369 -237 l89 -2 26 -72 26 -73 88 0 c68 0 88 3 84 13 -27 60 -172 424 -202 507 l-39 105 -81 0 c-82 0 -82 0 -72 -23 15 -32 3 -37 -30 -14 -29 20 -125 53 -152 51 -9 0 -28 -4 -42 -8z m207 -140 c18 -11 44 -35 58 -54 25 -32 76 -145 76 -167 0 -5 -22 -10 -48 -10 -68 0 -130 34 -169 94 -72 107 -17 198 83 137z"/>
 <path d="M725 2390 c22 -44 184 -425 223 -525 l20 -50 126 -3 127 -3 -7 68 c-3 37 -12 124 -20 192 -8 68 -13 125 -11 127 2 2 62 -83 133 -189 l131 -192 128 -3 c100 -2 126 0 123 10 -61 160 -173 464 -195 528 l-28 85 -81 0 -82 0 20 -50 c56 -140 149 -398 145 -402 -3 -2 -74 98 -159 223 l-153 227 -83 1 -83 1 5 -35 c6 -39 33 -285 41 -370 l4 -55 -29 60 c-15 33 -59 137 -95 230 l-67 170 -78 0 -78 0 23 -45z"/>
 <path d="M1632 2343 c22 -54 62 -159 88 -233 l48 -135 86 -3 c86 -3 87 -3 76 18 -17 32 -5 35 32 7 36 -27 101 -49 122 -41 11 4 9 20 -7 75 l-20 69 -39 0 c-48 0 -96 20 -125 51 -26 29 -71 126 -102 222 l-23 67 -88 0 -89 0 41 -97z"/>
 <path d="M2081 2270 c36 -91 90 -231 119 -311 l53 -147 167 -7 c163 -7 184 -5 243 17 31 12 57 54 57 92 0 49 -40 133 -85 179 -54 54 -113 84 -188 97 -74 12 -97 5 -97 -30 0 -50 12 -89 25 -84 22 9 96 -16 121 -41 16 -16 24 -36 24 -59 0 -41 -17 -49 -94 -44 -56 4 -42 -24 -162 303 l-73 200 -88 0 -88 0 66 -165z"/>
 <path d="M4403 2428 c2 -7 34 -87 70 -178 36 -91 73 -191 83 -222 l18 -58 72 0 c40 0 80 -3 88 -6 14 -5 15 -2 6 20 -5 14 -8 26 -6 26 2 0 23 -11 47 -24 55 -29 108 -40 114 -23 3 6 -3 39 -13 72 -17 57 -20 60 -53 63 -59 4 -78 11 -115 45 -41 36 -80 110 -115 222 l-24 75 -89 0 c-66 0 -87 -3 -83 -12z"/>
 <path d="M4820 2436 c0 -2 10 -26 21 -53 12 -26 66 -165 120 -308 l98 -260 179 -9 c270 -13 322 2 322 90 0 79 -62 165 -145 200 l-39 16 31 13 c81 34 72 147 -19 231 -59 56 -92 67 -233 75 -143 9 -335 11 -335 5z m382 -126 c44 -13 78 -52 78 -92 0 -37 -32 -50 -118 -46 l-64 3 -24 64 c-13 35 -24 67 -24 72 0 12 107 11 152 -1z m127 -286 c23 -19 31 -34 31 -59 0 -40 -11 -45 -99 -45 l-67 0 -19 53 c-10 28 -20 58 -23 65 -3 9 15 12 71 12 67 0 79 -3 106 -26z"/>
 <path d="M6801 2220 c47 -118 101 -259 120 -312 l34 -98 98 0 c53 0 97 2 97 4 0 2 -9 26 -21 53 -11 26 -31 76 -44 111 l-24 62 134 0 133 0 43 -118 44 -118 97 0 c61 1 97 5 94 11 -77 189 -166 420 -196 507 l-39 113 -99 0 -100 0 20 -50 c11 -27 33 -85 49 -127 l29 -78 -133 0 -132 0 -19 53 c-10 28 -32 87 -48 129 l-30 78 -97 -3 -96 -2 86 -215z"/>
 <path d="M4362 1757 c-29 -7 -53 -14 -54 -17 -2 -16 26 -120 33 -120 4 0 36 7 70 16 130 33 217 1 257 -95 11 -28 18 -51 15 -51 -3 0 -30 12 -60 26 -74 37 -129 41 -187 16 -86 -39 -95 -111 -30 -242 83 -165 264 -247 486 -219 95 11 118 17 118 29 0 4 -15 44 -34 88 -19 44 -62 154 -96 244 -34 90 -73 184 -87 210 -28 52 -75 89 -142 113 -52 18 -209 19 -289 2z m285 -338 c56 -21 104 -83 138 -180 l13 -37 -32 -6 c-19 -4 -40 -4 -47 -2 -8 2 -26 7 -41 10 -89 20 -164 169 -106 210 26 19 37 20 75 5z"/>
 <path d="M886 1724 c-21 -21 -20 -57 2 -77 17 -16 147 -17 1671 -17 1120 0 1659 3 1672 10 22 12 27 68 7 88 -9 9 -395 12 -1674 12 -1498 0 -1664 -2 -1678 -16z"/>
 <path d="M4922 1728 c-16 -16 -15 -60 1 -80 11 -14 226 -17 2233 -27 1221 -7 2228 -9 2237 -5 34 13 33 87 -1 98 -18 6 -2992 26 -3902 26 -419 0 -559 -3 -568 -12z"/>
 <path d="M1088 1547 c-73 -17 -132 -58 -158 -111 -25 -53 -25 -87 0 -168 74 -240 324 -392 588 -359 41 5 76 12 78 14 3 3 -3 34 -13 68 -19 62 -20 64 -49 59 -16 -3 -67 -5 -114 -5 -70 0 -93 5 -132 24 -98 50 -168 148 -168 237 0 56 12 79 50 99 32 17 161 20 223 6 20 -5 37 -7 37 -5 0 13 -66 134 -75 138 -33 12 -215 14 -267 3z"/>
 <path d="M2383 1549 c-17 -5 -41 -20 -51 -34 -25 -32 -31 -31 -43 3 -9 27 -11 28 -92 27 l-83 0 44 -105 c24 -58 79 -197 122 -310 l78 -205 91 -3 90 -3 -29 67 c-41 90 -41 91 27 84 72 -8 150 4 183 28 33 24 53 86 45 135 -10 55 -68 166 -115 220 -68 77 -188 121 -267 96z m138 -168 c59 -66 72 -166 24 -185 -20 -7 -83 -8 -111 0 -15 4 -27 23 -43 72 -39 121 -23 169 53 159 32 -4 49 -15 77 -46z"/>
 <path d="M3010 1549 c-14 -6 -37 -22 -52 -36 l-28 -27 -10 30 -10 30 -84 -1 -83 0 50 -120 c27 -66 82 -205 121 -310 l73 -190 86 -3 c48 -1 87 1 87 6 0 5 -14 40 -31 77 -16 37 -29 68 -27 70 2 1 28 -1 58 -5 58 -8 146 2 179 20 30 15 54 69 53 115 -1 96 -89 246 -178 302 -76 49 -149 63 -204 42z m111 -142 c67 -45 103 -161 63 -201 -16 -17 -108 -22 -131 -8 -19 12 -64 159 -57 187 12 49 70 59 125 22z"/>
 <path d="M5685 1545 c-22 -8 -41 -15 -41 -15 -1 0 -7 -14 -14 -31 -27 -64 28 -152 121 -196 24 -12 89 -31 144 -42 105 -23 138 -42 133 -75 -3 -18 -11 -21 -53 -24 -27 -1 -83 6 -122 16 -40 10 -73 17 -73 15 0 -2 11 -25 25 -52 27 -54 27 -54 174 -71 142 -16 241 15 241 77 0 18 -84 246 -140 381 -9 20 -16 22 -95 22 l-85 0 16 -37 c33 -77 65 -166 62 -173 -5 -11 -136 35 -159 56 -32 29 -21 58 24 62 20 2 37 5 37 8 0 2 -11 22 -26 43 -19 30 -34 40 -62 45 -51 8 -61 7 -107 -9z"/>
 <path d="M6293 1549 c-43 -12 -67 -50 -60 -92 3 -18 36 -110 73 -205 l68 -172 88 0 87 0 -36 83 c-72 166 -84 212 -61 235 19 19 82 14 111 -8 28 -23 80 -122 122 -237 l26 -72 87 -3 c48 -2 88 -3 90 -2 1 0 -22 59 -52 130 -30 71 -71 176 -92 234 l-38 105 -83 1 c-46 0 -83 -3 -83 -7 0 -4 4 -19 10 -33 12 -32 7 -32 -35 0 -61 46 -150 64 -222 43z"/>
 <path d="M6882 1550 c-29 -4 -56 -10 -58 -13 -5 -5 21 -115 29 -123 2 -2 20 3 40 11 41 17 109 20 136 5 37 -19 32 -39 -24 -100 -64 -70 -69 -99 -30 -166 38 -65 109 -96 223 -97 48 0 101 3 118 7 l32 7 -18 57 c-13 46 -20 56 -36 54 -107 -17 -164 -9 -164 24 0 9 23 41 50 71 41 45 50 61 50 91 0 65 -60 134 -138 160 -48 16 -148 22 -210 12z"/>
 <path d="M1490 1546 c0 -2 16 -42 36 -88 44 -101 165 -413 188 -485 l18 -53 254 0 255 0 -7 22 c-4 13 -14 41 -24 62 l-16 40 -157 -3 -156 -3 -16 38 c-8 21 -18 48 -21 61 l-6 23 132 0 c102 0 131 3 127 13 -3 6 -15 36 -27 65 l-23 52 -101 0 c-165 0 -169 2 -194 72 l-22 61 160 -5 c88 -3 160 -3 160 -1 0 1 -11 31 -25 65 l-25 63 -255 2 c-140 2 -255 1 -255 -1z"/>
 <path d="M3374 1535 c28 -62 101 -244 136 -337 l43 -118 90 0 c67 0 88 3 84 13 -28 67 -120 309 -142 372 l-28 80 -94 0 c-60 0 -92 -3 -89 -10z"/>
 <path d="M3670 1544 c0 -1 24 -59 54 -130 29 -71 71 -175 92 -231 l39 -103 72 0 c39 0 79 -3 89 -7 18 -7 18 5 -1 50 -6 14 4 11 42 -13 47 -29 141 -53 180 -45 10 2 30 6 46 10 39 8 67 40 67 75 0 17 -28 101 -61 188 -34 86 -64 168 -68 180 -6 22 -11 24 -98 26 l-91 2 18 -46 c92 -232 95 -242 80 -270 -15 -29 -76 -27 -121 4 -40 28 -81 99 -129 228 l-33 87 -88 -2 c-49 -1 -89 -2 -89 -3z"/>
 <path d="M5006 1426 c39 -93 160 -406 189 -493 3 -9 31 -13 94 -13 l90 0 -45 106 c-24 59 -43 109 -40 111 2 3 23 -9 46 -26 82 -59 218 -64 272 -10 16 15 28 37 28 49 0 12 -31 102 -70 200 -38 98 -70 183 -70 189 0 7 -33 11 -94 11 l-93 0 54 -131 c56 -135 68 -193 43 -210 -22 -15 -85 -4 -118 20 -34 24 -92 129 -132 240 l-28 76 -89 1 -89 1 52 -121z"/>
 <path d="M3600 960 c11 -28 20 -53 20 -55 0 -3 38 -5 85 -5 47 0 85 3 85 6 0 4 -8 28 -17 55 l-18 49 -87 0 -88 0 20 -50z"/>
 </g>

</svg>